REM DIRINDEX 1\2,1\3
REM DIRNAME folder01,folder02,folder03
TITLE ""
FILE "CD2Track10.mp3" MP3
  TRACK 01 AUDIO
    TITLE "0:"
    INDEX 01 00:00:00
  TRACK 02 AUDIO
    TITLE "2:cjc102_2653"
    INDEX 01 00:00:25
  TRACK 03 AUDIO
    TITLE "0:"
    INDEX 01 00:01:11
  TRACK 04 AUDIO
    TITLE "3:cjc102_2654"
    INDEX 01 00:01:71
  TRACK 05 AUDIO
    TITLE "0:"
    INDEX 01 00:03:35
  TRACK 06 AUDIO
    TITLE "3:cjc102_2655"
    INDEX 01 00:03:51
  TRACK 07 AUDIO
    TITLE "0:"
    INDEX 01 00:08:38
  TRACK 08 AUDIO
    TITLE "2:cjc102_2656"
    INDEX 01 00:08:42
  TRACK 09 AUDIO
    TITLE "0:"
    INDEX 01 00:09:49
  TRACK 10 AUDIO
    TITLE "3:cjc102_2657"
    INDEX 01 00:10:45
  TRACK 11 AUDIO
    TITLE "0:"
    INDEX 01 00:11:42
  TRACK 12 AUDIO
    TITLE "2:cjc102_2658"
    INDEX 01 00:11:46
  TRACK 13 AUDIO
    TITLE "0:"
    INDEX 01 00:12:52
  TRACK 14 AUDIO
    TITLE "3:cjc102_2659"
    INDEX 01 00:13:37
  TRACK 15 AUDIO
    TITLE "0:"
    INDEX 01 00:14:23
  TRACK 16 AUDIO
    TITLE "2:cjc102_2660"
    INDEX 01 00:14:25
  TRACK 17 AUDIO
    TITLE "0:"
    INDEX 01 00:15:42
  TRACK 18 AUDIO
    TITLE "3:cjc102_2661"
    INDEX 01 00:16:26
  TRACK 19 AUDIO
    TITLE "0:"
    INDEX 01 00:17:25
  TRACK 20 AUDIO
    TITLE "2:cjc102_2662"
    INDEX 01 00:17:41
  TRACK 21 AUDIO
    TITLE "0:"
    INDEX 01 00:18:48
  TRACK 22 AUDIO
    TITLE "3:cjc102_2663"
    INDEX 01 00:19:48
  TRACK 23 AUDIO
    TITLE "0:"
    INDEX 01 00:20:43
  TRACK 24 AUDIO
    TITLE "2:cjc102_2664"
    INDEX 01 00:20:67
  TRACK 25 AUDIO
    TITLE "0:"
    INDEX 01 00:22:05
  TRACK 26 AUDIO
    TITLE "3:cjc102_2665"
    INDEX 01 00:23:08
  TRACK 27 AUDIO
    TITLE "0:"
    INDEX 01 00:23:63
  TRACK 28 AUDIO
    TITLE "2:cjc102_2666"
    INDEX 01 00:24:33
  TRACK 29 AUDIO
    TITLE "0:"
    INDEX 01 00:25:48
  TRACK 30 AUDIO
    TITLE "3:cjc102_2667"
    INDEX 01 00:26:44
  TRACK 31 AUDIO
    TITLE "0:"
    INDEX 01 00:27:43
  TRACK 32 AUDIO
    TITLE "2:cjc102_2668"
    INDEX 01 00:27:69
  TRACK 33 AUDIO
    TITLE "0:"
    INDEX 01 00:29:17
  TRACK 34 AUDIO
    TITLE "3:cjc102_2669"
    INDEX 01 00:30:20
  TRACK 35 AUDIO
    TITLE "0:"
    INDEX 01 00:31:14
  TRACK 36 AUDIO
    TITLE "2:cjc102_2670"
    INDEX 01 00:31:33
  TRACK 37 AUDIO
    TITLE "0:"
    INDEX 01 00:32:45
  TRACK 38 AUDIO
    TITLE "3:cjc102_2671"
    INDEX 01 00:33:01
  TRACK 39 AUDIO
    TITLE "0:"
    INDEX 01 00:33:73
  TRACK 40 AUDIO
    TITLE "2:cjc102_2672"
    INDEX 01 00:34:65
  TRACK 41 AUDIO
    TITLE "0:"
    INDEX 01 00:35:74
  TRACK 42 AUDIO
    TITLE "3:cjc102_2673"
    INDEX 01 00:37:01
  TRACK 43 AUDIO
    TITLE "0:"
    INDEX 01 00:37:69
  TRACK 44 AUDIO
    TITLE "2:cjc102_2674"
    INDEX 01 00:39:00
  TRACK 45 AUDIO
    TITLE "0:"
    INDEX 01 00:40:11
  TRACK 46 AUDIO
    TITLE "3:cjc102_2675"
    INDEX 01 00:41:08
  TRACK 47 AUDIO
    TITLE "0:"
    INDEX 01 00:42:04
  TRACK 48 AUDIO
    TITLE "2:cjc102_2676"
    INDEX 01 00:42:31
  TRACK 49 AUDIO
    TITLE "0:"
    INDEX 01 00:43:33
  TRACK 50 AUDIO
    TITLE "3:cjc102_2677"
    INDEX 01 00:44:30
  TRACK 51 AUDIO
    TITLE "0:"
    INDEX 01 00:45:47
  TRACK 52 AUDIO
    TITLE "2:cjc102_2678"
    INDEX 01 00:46:09
  TRACK 53 AUDIO
    TITLE "0:"
    INDEX 01 00:47:15
  TRACK 54 AUDIO
    TITLE "3:cjc102_2679"
    INDEX 01 00:48:20
  TRACK 55 AUDIO
    TITLE "0:"
    INDEX 01 00:49:31
  TRACK 56 AUDIO
    TITLE "2:cjc102_2680"
    INDEX 01 00:49:43
  TRACK 57 AUDIO
    TITLE "0:"
    INDEX 01 00:50:62
  TRACK 58 AUDIO
    TITLE "3:cjc102_2681"
    INDEX 01 00:51:63
  TRACK 59 AUDIO
    TITLE "0:"
    INDEX 01 00:53:09
  TRACK 60 AUDIO
    TITLE "2:cjc102_2682"
    INDEX 01 00:53:55
  TRACK 61 AUDIO
    TITLE "0:"
    INDEX 01 00:54:48
  TRACK 62 AUDIO
    TITLE "3:cjc102_2683"
    INDEX 01 00:55:71
  TRACK 63 AUDIO
    TITLE "0:"
    INDEX 01 00:57:15
  TRACK 64 AUDIO
    TITLE "2:cjc102_2684"
    INDEX 01 00:57:27
  TRACK 65 AUDIO
    TITLE "0:"
    INDEX 01 00:58:38
  TRACK 66 AUDIO
    TITLE "3:cjc102_2685"
    INDEX 01 00:59:39
  TRACK 67 AUDIO
    TITLE "0:"
    INDEX 01 01:00:47
  TRACK 68 AUDIO
    TITLE "2:cjc102_2686"
    INDEX 01 01:00:57
  TRACK 69 AUDIO
    TITLE "0:"
    INDEX 01 01:01:68
  TRACK 70 AUDIO
    TITLE "3:cjc102_2687"
    INDEX 01 01:03:16
  TRACK 71 AUDIO
    TITLE "0:"
    INDEX 01 01:04:27
  TRACK 72 AUDIO
    TITLE "2:cjc102_2688"
    INDEX 01 01:04:41
  TRACK 73 AUDIO
    TITLE "0:"
    INDEX 01 01:05:46
  TRACK 74 AUDIO
    TITLE "3:cjc102_2689"
    INDEX 01 01:07:21
  TRACK 75 AUDIO
    TITLE "0:"
    INDEX 01 01:08:42
  TRACK 76 AUDIO
    TITLE "2:cjc102_2690"
    INDEX 01 01:08:60
  TRACK 77 AUDIO
    TITLE "0:"
    INDEX 01 01:09:59
  TRACK 78 AUDIO
    TITLE "2:cjc102_2691"
    INDEX 01 01:10:28
  TRACK 79 AUDIO
    TITLE "0:"
    INDEX 01 01:11:35
  TRACK 80 AUDIO
    TITLE "3:cjc102_2692"
    INDEX 01 01:11:72
  TRACK 81 AUDIO
    TITLE "0:"
    INDEX 01 01:13:22
  TRACK 82 AUDIO
    TITLE "2:cjc102_2693"
    INDEX 01 01:14:00
  TRACK 83 AUDIO
    TITLE "0:"
    INDEX 01 01:14:68
  TRACK 84 AUDIO
    TITLE "2:cjc102_2694"
    INDEX 01 01:15:39
  TRACK 85 AUDIO
    TITLE "0:"
    INDEX 01 01:16:38
  TRACK 86 AUDIO
    TITLE "3:cjc102_2695"
    INDEX 01 01:16:61
  TRACK 87 AUDIO
    TITLE "0:"
    INDEX 01 01:18:11
  TRACK 88 AUDIO
    TITLE "2:cjc102_2696"
    INDEX 01 01:18:64
  TRACK 89 AUDIO
    TITLE "0:"
    INDEX 01 01:19:48
  TRACK 90 AUDIO
    TITLE "2:cjc102_2697"
    INDEX 01 01:20:28
  TRACK 91 AUDIO
    TITLE "0:"
    INDEX 01 01:21:25
  TRACK 92 AUDIO
    TITLE "3:cjc102_2698"
    INDEX 01 01:22:58
  TRACK 93 AUDIO
    TITLE "0:"
    INDEX 01 01:23:69
  TRACK 94 AUDIO
    TITLE "2:cjc102_2699"
    INDEX 01 01:23:71
  TRACK 95 AUDIO
    TITLE "0:"
    INDEX 01 01:24:53
  TRACK 96 AUDIO
    TITLE "2:cjc102_2700"
    INDEX 01 01:25:31
  TRACK 97 AUDIO
    TITLE "0:"
    INDEX 01 01:26:32
  TRACK 98 AUDIO
    TITLE "3:cjc102_2701"
    INDEX 01 01:27:67
  TRACK 99 AUDIO
    TITLE "0:"
    INDEX 01 01:29:21
  TRACK 100 AUDIO
    TITLE "2:cjc102_2702"
    INDEX 01 01:29:50
  TRACK 101 AUDIO
    TITLE "0:"
    INDEX 01 01:32:02
  TRACK 102 AUDIO
    TITLE "3:cjc102_2703"
    INDEX 01 01:32:60
  TRACK 103 AUDIO
    TITLE "0:"
    INDEX 01 01:34:08
  TRACK 104 AUDIO
    TITLE "2:cjc102_2704"
    INDEX 01 01:34:71
  TRACK 105 AUDIO
    TITLE "0:"
    INDEX 01 01:38:47
  TRACK 106 AUDIO
    TITLE "3:cjc102_2705"
    INDEX 01 01:38:51
  TRACK 107 AUDIO
    TITLE "0:"
    INDEX 01 01:40:05
  TRACK 108 AUDIO
    TITLE "2:cjc102_2706"
    INDEX 01 01:40:40
  TRACK 109 AUDIO
    TITLE "0:"
    INDEX 01 01:41:50
  TRACK 110 AUDIO
    TITLE "3:cjc102_2707"
    INDEX 01 01:42:02
  TRACK 111 AUDIO
    TITLE "0:"
    INDEX 01 01:43:27
  TRACK 112 AUDIO
    TITLE "2:cjc102_2708"
    INDEX 01 01:43:33
  TRACK 113 AUDIO
    TITLE "0:"
    INDEX 01 01:44:42
  TRACK 114 AUDIO
    TITLE "3:cjc102_2709"
    INDEX 01 01:45:47
  TRACK 115 AUDIO
    TITLE "0:"
    INDEX 01 01:46:61
  TRACK 116 AUDIO
    TITLE "2:cjc102_2710"
    INDEX 01 01:46:65
  TRACK 117 AUDIO
    TITLE "0:"
    INDEX 01 01:47:54
  TRACK 118 AUDIO
    TITLE "3:cjc102_2711"
    INDEX 01 01:49:00
  TRACK 119 AUDIO
    TITLE "0:"
    INDEX 01 01:50:35
  TRACK 120 AUDIO
    TITLE "2:cjc102_2712"
    INDEX 01 01:50:53
  TRACK 121 AUDIO
    TITLE "0:"
    INDEX 01 01:51:52
  TRACK 122 AUDIO
    TITLE "3:cjc102_2713"
    INDEX 01 01:52:26
  TRACK 123 AUDIO
    TITLE "0:"
    INDEX 01 01:53:57
  TRACK 124 AUDIO
    TITLE "2:cjc102_2714"
    INDEX 01 01:54:27
  TRACK 125 AUDIO
    TITLE "0:"
    INDEX 01 01:55:24
  TRACK 126 AUDIO
    TITLE "3:cjc102_2715"
    INDEX 01 01:56:20
  TRACK 127 AUDIO
    TITLE "0:"
    INDEX 01 01:57:55
  TRACK 128 AUDIO
    TITLE "2:cjc102_2716"
    INDEX 01 01:57:66
  TRACK 129 AUDIO
    TITLE "0:"
    INDEX 01 01:58:60
